<svg viewBox="0 0 800 120" xmlns="http://www.w3.org/2000/svg" role="img" aria-labelledby="tr dr">
  <title id="tr">Root Divider</title><desc id="dr">A tangle of roots with noise-roughened vectors and shadow.</desc>
  <defs>
    <filter id="rootRough">
      <feTurbulence type="fractalNoise" baseFrequency="0.012" numOctaves="3" seed="4" result="n"/>
      <feDisplacementMap in="SourceGraphic" in2="n" scale="4"/>
    </filter>
    <filter id="dropBruise">
      <feGaussianBlur stdDeviation="1.4" result="b"/>
      <feColorMatrix in="b" type="matrix" values="1 0 0 0 0
                                                 0 1 0 0 0
                                                 0 0 1 0 0
                                                 0 0 0 0.6 0"/>
      <feBlend in="SourceGraphic" in2="b" mode="multiply"/>
    </filter>
  </defs>

  <rect width="100%" height="100%" fill="#0b0b0f"/>
  <g fill="none" stroke="#5fa56b" stroke-width="2" filter="url(#dropBruise)">
    <g filter="url(#rootRough)">
      <path d="M20,60 C120,20 220,100 320,60 420,20 520,100 620,60 700,30 760,60 780,50"/>
      <path d="M100,70 C160,40 240,80 300,55 360,30 460,85 520,60 600,40 660,70 740,62"/>
      <path d="M40,80 C140,55 180,95 260,70 340,45 380,85 460,60 540,35 660,90 780,68"/>
    </g>
  </g>
</svg>
